<svg xmlns="http://www.w3.org/2000/svg" xmlns:xlink="http://www.w3.org/1999/xlink" width="100" zoomAndPan="magnify" viewBox="0 0 75 74.999997" height="100" preserveAspectRatio="xMidYMid meet" version="1.0"><defs><filter x="0%" y="0%" width="100%" height="100%" id="88d54244bd"><feColorMatrix values="0 0 0 0 1 0 0 0 0 1 0 0 0 0 1 0 0 0 1 0" color-interpolation-filters="sRGB"/></filter><mask id="9d99901e26"><g filter="url(#88d54244bd)"><rect x="-7.5" width="90" fill="#000000" y="-7.5" height="89.999996" fill-opacity="0.79"/></g></mask><clipPath id="0a55959f01"><path d="M 1 0.160156 L 31.398438 0.160156 L 31.398438 23.441406 L 1 23.441406 Z M 1 0.160156 " clip-rule="nonzero"/></clipPath><clipPath id="bcc6d5b566"><rect x="0" width="32" y="0" height="24"/></clipPath><mask id="ca31fdc0e4"><g filter="url(#88d54244bd)"><rect x="-7.5" width="90" fill="#000000" y="-7.5" height="89.999996" fill-opacity="0.79"/></g></mask><clipPath id="8d7fa330a9"><path d="M 0.078125 0.558594 L 51.199219 0.558594 L 51.199219 57.921875 L 0.078125 57.921875 Z M 0.078125 0.558594 " clip-rule="nonzero"/></clipPath><clipPath id="8f93e1842c"><rect x="0" width="52" y="0" height="58"/></clipPath><mask id="9f4b71a4d7"><g filter="url(#88d54244bd)"><rect x="-7.5" width="90" fill="#000000" y="-7.5" height="89.999996" fill-opacity="0.79"/></g></mask><clipPath id="7adf34d6b3"><path d="M 0.28125 0.160156 L 41.800781 0.160156 L 41.800781 15 L 0.28125 15 Z M 0.28125 0.160156 " clip-rule="nonzero"/></clipPath><clipPath id="271294b841"><rect x="0" width="42" y="0" height="16"/></clipPath><mask id="528fd3f1f9"><g filter="url(#88d54244bd)"><rect x="-7.5" width="90" fill="#000000" y="-7.5" height="89.999996" fill-opacity="0.79"/></g></mask><clipPath id="8e2389ee18"><path d="M 1 0.558594 L 33.199219 0.558594 L 33.199219 17.839844 L 1 17.839844 Z M 1 0.558594 " clip-rule="nonzero"/></clipPath><clipPath id="eddd6efc11"><rect x="0" width="34" y="0" height="18"/></clipPath><mask id="ceae662e9f"><g filter="url(#88d54244bd)"><rect x="-7.5" width="90" fill="#000000" y="-7.5" height="89.999996" fill-opacity="0.79"/></g></mask><clipPath id="28894bbcae"><path d="M 0.71875 0.558594 L 7.199219 0.558594 L 7.199219 1.28125 L 0.71875 1.28125 Z M 0.71875 0.558594 " clip-rule="nonzero"/></clipPath><clipPath id="4a3060cb13"><rect x="0" width="8" y="0" height="2"/></clipPath><mask id="9694744f42"><g filter="url(#88d54244bd)"><rect x="-7.5" width="90" fill="#000000" y="-7.5" height="89.999996" fill-opacity="0.79"/></g></mask><clipPath id="1a00cc4920"><path d="M 0.398438 0.441406 L 28.960938 0.441406 L 28.960938 22.519531 L 0.398438 22.519531 Z M 0.398438 0.441406 " clip-rule="nonzero"/></clipPath><clipPath id="0f63d95be2"><rect x="0" width="29" y="0" height="23"/></clipPath><clipPath id="358cb5c2a5"><path d="M 25 26 L 71.960938 26 L 71.960938 56 L 25 56 Z M 25 26 " clip-rule="nonzero"/></clipPath><mask id="cbedca8186"><g filter="url(#88d54244bd)"><rect x="-7.5" width="90" fill="#000000" y="-7.5" height="89.999996" fill-opacity="0.79"/></g></mask><clipPath id="56d00f433f"><path d="M 1 0.160156 L 46 0.160156 L 46 29.679688 L 1 29.679688 Z M 1 0.160156 " clip-rule="nonzero"/></clipPath><clipPath id="bc55fc8c40"><rect x="0" width="47" y="0" height="30"/></clipPath><mask id="1cce78fecf"><g filter="url(#88d54244bd)"><rect x="-7.5" width="90" fill="#000000" y="-7.5" height="89.999996" fill-opacity="0.24"/></g></mask><clipPath id="f6f96e790c"><path d="M 1 0.160156 L 43.398438 0.160156 L 43.398438 17 L 1 17 Z M 1 0.160156 " clip-rule="nonzero"/></clipPath><clipPath id="f3ba4d28f3"><rect x="0" width="44" y="0" height="18"/></clipPath></defs><g mask="url(#9d99901e26)"><g transform="matrix(1, 0, 0, 1, 25, 26)"><g clip-path="url(#bcc6d5b566)"><g clip-path="url(#0a55959f01)"><path fill="#000000" d="M 1.082031 11.878906 C 1.082031 18.253906 6.265625 23.4375 12.640625 23.4375 C 16.554688 23.4375 20.019531 21.480469 22.113281 18.492188 L 12.640625 18.492188 L 12.640625 9.316406 L 30.027344 9.316406 C 30.789062 6.445312 31.203125 3.429688 31.214844 0.320312 L 12.640625 0.320312 C 6.265625 0.320312 1.082031 5.503906 1.082031 11.878906 Z M 1.082031 11.878906 " fill-opacity="1" fill-rule="nonzero"/></g></g></g></g><g mask="url(#ca31fdc0e4)"><g transform="matrix(1, 0, 0, 1, 4, 4)"><g clip-path="url(#8f93e1842c)"><g clip-path="url(#8d7fa330a9)"><path fill="#000000" d="M 12.90625 33.878906 C 12.90625 22.445312 22.207031 13.144531 33.640625 13.144531 L 51.0625 13.144531 L 42.25 4.328125 C 37.417969 -0.503906 29.585938 -0.503906 24.753906 4.328125 L 3.796875 25.28125 C -1.035156 30.113281 -1.035156 37.949219 3.796875 42.78125 L 18.734375 57.714844 C 23.28125 57.445312 27.59375 56.324219 31.523438 54.507812 C 21.082031 53.445312 12.90625 44.597656 12.90625 33.878906 Z M 12.90625 33.878906 " fill-opacity="1" fill-rule="nonzero"/></g></g></g></g><g mask="url(#9f4b71a4d7)"><g transform="matrix(1, 0, 0, 1, 29, 26)"><g clip-path="url(#271294b841)"><g clip-path="url(#7adf34d6b3)"><path fill="#000000" d="M 0.382812 3.800781 C 2.664062 6.6875 5.460938 9.144531 8.640625 11.03125 L 8.640625 9.316406 L 29.375 9.316406 L 29.375 14.738281 C 33.867188 13.917969 38.011719 12.09375 41.566406 9.511719 C 41.09375 7.230469 39.976562 5.054688 38.203125 3.285156 L 35.242188 0.320312 L 8.640625 0.320312 C 5.410156 0.320312 2.484375 1.652344 0.382812 3.800781 Z M 0.382812 3.800781 " fill-opacity="1" fill-rule="nonzero"/></g></g></g></g><g mask="url(#528fd3f1f9)"><g transform="matrix(1, 0, 0, 1, 22, 4)"><g clip-path="url(#eddd6efc11)"><g clip-path="url(#8e2389ee18)"><path fill="#000000" d="M 15.640625 13.144531 L 33.066406 13.144531 L 24.25 4.328125 C 19.417969 -0.503906 11.585938 -0.503906 6.753906 4.328125 L 1.0625 10.015625 C 1.308594 12.664062 1.902344 15.214844 2.789062 17.617188 C 6.324219 14.816406 10.789062 13.144531 15.640625 13.144531 Z M 15.640625 13.144531 " fill-opacity="1" fill-rule="nonzero"/></g></g></g></g><g mask="url(#ceae662e9f)"><g transform="matrix(1, 0, 0, 1, 48, 16)"><g clip-path="url(#4a3060cb13)"><g clip-path="url(#28894bbcae)"><path fill="#000000" d="M 7.066406 1.144531 L 6.601562 0.679688 C 6.566406 0.679688 6.535156 0.675781 6.503906 0.675781 C 4.585938 0.675781 2.710938 0.839844 0.878906 1.144531 Z M 7.066406 1.144531 " fill-opacity="1" fill-rule="nonzero"/></g></g></g></g><g mask="url(#9694744f42)"><g transform="matrix(1, 0, 0, 1, 20, 49)"><g clip-path="url(#0f63d95be2)"><g clip-path="url(#1a00cc4920)"><path fill="#000000" d="M 17.640625 9.613281 C 10.578125 9.613281 4.328125 6.066406 0.582031 0.65625 C 0.574219 0.972656 0.570312 1.289062 0.570312 1.609375 C 0.570312 5.328125 1.171875 8.910156 2.277344 12.257812 L 8.753906 18.734375 C 13.585938 23.566406 21.417969 23.566406 26.25 18.734375 L 28.703125 16.28125 L 28.703125 6.410156 C 25.5 8.4375 21.707031 9.613281 17.640625 9.613281 Z M 17.640625 9.613281 " fill-opacity="1" fill-rule="nonzero"/></g></g></g></g><g clip-path="url(#358cb5c2a5)"><g mask="url(#cbedca8186)"><g transform="matrix(1, 0, 0, 1, 25, 26)"><g clip-path="url(#bc55fc8c40)"><g clip-path="url(#56d00f433f)"><path fill="#000000" d="M 42.203125 3.28125 L 39.242188 0.320312 L 12.640625 0.320312 C 6.265625 0.320312 1.078125 5.503906 1.078125 11.878906 C 1.078125 18.253906 6.265625 23.441406 12.640625 23.441406 C 16.554688 23.441406 20.019531 21.480469 22.113281 18.492188 L 12.640625 18.492188 L 12.640625 9.316406 L 33.375 9.316406 L 33.375 29.609375 L 42.203125 20.78125 C 47.035156 15.949219 47.035156 8.113281 42.203125 3.28125 Z M 42.203125 3.28125 " fill-opacity="1" fill-rule="nonzero"/></g></g></g></g></g><g mask="url(#1cce78fecf)"><g transform="matrix(1, 0, 0, 1, 25, 26)"><g clip-path="url(#f3ba4d28f3)"><g clip-path="url(#f6f96e790c)"><path fill="#414042" d="M 1.082031 11.878906 C 1.082031 13.671875 1.492188 15.371094 2.222656 16.886719 C 2.203125 16.609375 2.1875 16.324219 2.1875 16.035156 C 2.1875 9.664062 7.375 4.476562 13.75 4.476562 L 43.253906 4.476562 C 42.933594 4.0625 42.585938 3.660156 42.207031 3.28125 L 39.242188 0.320312 L 12.640625 0.320312 C 6.265625 0.320312 1.082031 5.503906 1.082031 11.878906 Z M 1.082031 11.878906 " fill-opacity="1" fill-rule="nonzero"/></g></g></g></g></svg>