<svg xmlns="http://www.w3.org/2000/svg" xmlns:xlink="http://www.w3.org/1999/xlink" width="100" zoomAndPan="magnify" viewBox="0 0 75 74.999997" height="100" preserveAspectRatio="xMidYMid meet" version="1.0"><defs><filter x="0%" y="0%" width="100%" height="100%" id="744da5032f"><feColorMatrix values="0 0 0 0 1 0 0 0 0 1 0 0 0 0 1 0 0 0 1 0" color-interpolation-filters="sRGB"/></filter><mask id="ced7e3cfec"><g filter="url(#744da5032f)"><rect x="-7.5" width="90" fill="#000000" y="-7.5" height="89.999996" fill-opacity="0.79"/></g></mask><clipPath id="d1a908f331"><path d="M 1 0.679688 L 31.398438 0.679688 L 31.398438 23.960938 L 1 23.960938 Z M 1 0.679688 " clip-rule="nonzero"/></clipPath><clipPath id="926084573c"><rect x="0" width="32" y="0" height="24"/></clipPath><mask id="aefb2a712a"><g filter="url(#744da5032f)"><rect x="-7.5" width="90" fill="#000000" y="-7.5" height="89.999996" fill-opacity="0.79"/></g></mask><clipPath id="e002f360be"><path d="M 0.078125 0.078125 L 51.199219 0.078125 L 51.199219 57.441406 L 0.078125 57.441406 Z M 0.078125 0.078125 " clip-rule="nonzero"/></clipPath><clipPath id="e0cd92e662"><rect x="0" width="52" y="0" height="58"/></clipPath><mask id="407c213e9a"><g filter="url(#744da5032f)"><rect x="-7.5" width="90" fill="#000000" y="-7.5" height="89.999996" fill-opacity="0.79"/></g></mask><clipPath id="df84a42298"><path d="M 0.28125 0.679688 L 41.800781 0.679688 L 41.800781 15.320312 L 0.28125 15.320312 Z M 0.28125 0.679688 " clip-rule="nonzero"/></clipPath><clipPath id="461fdb3081"><rect x="0" width="42" y="0" height="16"/></clipPath><mask id="bd4cec9095"><g filter="url(#744da5032f)"><rect x="-7.5" width="90" fill="#000000" y="-7.5" height="89.999996" fill-opacity="0.79"/></g></mask><clipPath id="52b6c3cfc0"><path d="M 1 0.078125 L 33.199219 0.078125 L 33.199219 17.359375 L 1 17.359375 Z M 1 0.078125 " clip-rule="nonzero"/></clipPath><clipPath id="680537168f"><rect x="0" width="34" y="0" height="18"/></clipPath><mask id="77263fa5be"><g filter="url(#744da5032f)"><rect x="-7.5" width="90" fill="#000000" y="-7.5" height="89.999996" fill-opacity="0.79"/></g></mask><clipPath id="423c2db6fa"><path d="M 0.71875 0.078125 L 7.199219 0.078125 L 7.199219 0.800781 L 0.71875 0.800781 Z M 0.71875 0.078125 " clip-rule="nonzero"/></clipPath><clipPath id="9f3b4e789c"><rect x="0" width="8" y="0" height="1"/></clipPath><clipPath id="0ed185a490"><path d="M 20 48 L 49 48 L 49 71.960938 L 20 71.960938 Z M 20 48 " clip-rule="nonzero"/></clipPath><mask id="5d0b09d640"><g filter="url(#744da5032f)"><rect x="-7.5" width="90" fill="#000000" y="-7.5" height="89.999996" fill-opacity="0.79"/></g></mask><clipPath id="c7ca1a145f"><path d="M 0.398438 1 L 28.960938 1 L 28.960938 23 L 0.398438 23 Z M 0.398438 1 " clip-rule="nonzero"/></clipPath><clipPath id="85444abacd"><rect x="0" width="29" y="0" height="24"/></clipPath><clipPath id="576c429adc"><path d="M 25 25 L 71.960938 25 L 71.960938 56 L 25 56 Z M 25 25 " clip-rule="nonzero"/></clipPath><mask id="c9f372e0e7"><g filter="url(#744da5032f)"><rect x="-7.5" width="90" fill="#000000" y="-7.5" height="89.999996" fill-opacity="0.79"/></g></mask><clipPath id="dfb977444f"><path d="M 1 0.679688 L 46 0.679688 L 46 30.199219 L 1 30.199219 Z M 1 0.679688 " clip-rule="nonzero"/></clipPath><clipPath id="2130919379"><rect x="0" width="47" y="0" height="31"/></clipPath><mask id="2802184218"><g filter="url(#744da5032f)"><rect x="-7.5" width="90" fill="#000000" y="-7.5" height="89.999996" fill-opacity="0.24"/></g></mask><clipPath id="bfa5f77db0"><path d="M 1 0.679688 L 43.398438 0.679688 L 43.398438 17.480469 L 1 17.480469 Z M 1 0.679688 " clip-rule="nonzero"/></clipPath><clipPath id="e90723cfd9"><rect x="0" width="44" y="0" height="18"/></clipPath></defs><rect x="-7.5" width="90" fill="#ffffff" y="-7.5" height="89.999996" fill-opacity="1"/><rect x="-7.5" width="90" fill="#000000" y="-7.5" height="89.999996" fill-opacity="1"/><g mask="url(#ced7e3cfec)"><g transform="matrix(1, 0, 0, 1, 25, 25)"><g clip-path="url(#926084573c)"><g clip-path="url(#d1a908f331)"><path fill="#ffffff" d="M 1.082031 12.347656 C 1.082031 18.722656 6.265625 23.910156 12.640625 23.910156 C 16.554688 23.910156 20.019531 21.949219 22.113281 18.964844 L 12.640625 18.964844 L 12.640625 9.785156 L 30.027344 9.785156 C 30.789062 6.914062 31.203125 3.898438 31.214844 0.789062 L 12.640625 0.789062 C 6.265625 0.789062 1.082031 5.976562 1.082031 12.347656 Z M 1.082031 12.347656 " fill-opacity="1" fill-rule="nonzero"/></g></g></g></g><g mask="url(#aefb2a712a)"><g transform="matrix(1, 0, 0, 1, 4, 4)"><g clip-path="url(#e0cd92e662)"><g clip-path="url(#e002f360be)"><path fill="#ffffff" d="M 12.90625 33.347656 C 12.90625 21.914062 22.207031 12.613281 33.640625 12.613281 L 51.0625 12.613281 L 42.25 3.796875 C 37.417969 -1.035156 29.585938 -1.035156 24.753906 3.796875 L 3.796875 24.753906 C -1.035156 29.585938 -1.035156 37.417969 3.796875 42.25 L 18.734375 57.1875 C 23.28125 56.917969 27.59375 55.792969 31.523438 53.976562 C 21.082031 52.914062 12.90625 44.070312 12.90625 33.347656 Z M 12.90625 33.347656 " fill-opacity="1" fill-rule="nonzero"/></g></g></g></g><g mask="url(#407c213e9a)"><g transform="matrix(1, 0, 0, 1, 29, 25)"><g clip-path="url(#461fdb3081)"><g clip-path="url(#df84a42298)"><path fill="#ffffff" d="M 0.382812 4.269531 C 2.664062 7.15625 5.460938 9.613281 8.640625 11.503906 L 8.640625 9.789062 L 29.375 9.789062 L 29.375 15.207031 C 33.867188 14.386719 38.011719 12.566406 41.566406 9.984375 C 41.09375 7.699219 39.976562 5.527344 38.203125 3.753906 L 35.242188 0.789062 L 8.640625 0.789062 C 5.410156 0.789062 2.484375 2.125 0.382812 4.269531 Z M 0.382812 4.269531 " fill-opacity="1" fill-rule="nonzero"/></g></g></g></g><g mask="url(#bd4cec9095)"><g transform="matrix(1, 0, 0, 1, 22, 4)"><g clip-path="url(#680537168f)"><g clip-path="url(#52b6c3cfc0)"><path fill="#ffffff" d="M 15.640625 12.613281 L 33.066406 12.613281 L 24.25 3.796875 C 19.417969 -1.035156 11.585938 -1.035156 6.753906 3.796875 L 1.0625 9.488281 C 1.308594 12.136719 1.902344 14.683594 2.789062 17.089844 C 6.324219 14.289062 10.789062 12.613281 15.640625 12.613281 Z M 15.640625 12.613281 " fill-opacity="1" fill-rule="nonzero"/></g></g></g></g><g mask="url(#77263fa5be)"><g transform="matrix(1, 0, 0, 1, 48, 16)"><g clip-path="url(#9f3b4e789c)"><g clip-path="url(#423c2db6fa)"><path fill="#ffffff" d="M 7.066406 0.613281 L 6.601562 0.148438 C 6.566406 0.148438 6.535156 0.148438 6.503906 0.148438 C 4.585938 0.148438 2.710938 0.308594 0.878906 0.613281 Z M 7.066406 0.613281 " fill-opacity="1" fill-rule="nonzero"/></g></g></g></g><g clip-path="url(#0ed185a490)"><g mask="url(#5d0b09d640)"><g transform="matrix(1, 0, 0, 1, 20, 48)"><g clip-path="url(#85444abacd)"><g clip-path="url(#c7ca1a145f)"><path fill="#ffffff" d="M 17.640625 10.085938 C 10.578125 10.085938 4.328125 6.535156 0.582031 1.128906 C 0.574219 1.445312 0.570312 1.761719 0.570312 2.078125 C 0.570312 5.800781 1.171875 9.378906 2.277344 12.730469 L 8.753906 19.203125 C 13.585938 24.035156 21.417969 24.035156 26.25 19.203125 L 28.703125 16.75 L 28.703125 6.878906 C 25.5 8.910156 21.707031 10.085938 17.640625 10.085938 Z M 17.640625 10.085938 " fill-opacity="1" fill-rule="nonzero"/></g></g></g></g></g><g clip-path="url(#576c429adc)"><g mask="url(#c9f372e0e7)"><g transform="matrix(1, 0, 0, 1, 25, 25)"><g clip-path="url(#2130919379)"><g clip-path="url(#dfb977444f)"><path fill="#ffffff" d="M 42.203125 3.753906 L 39.242188 0.789062 L 12.640625 0.789062 C 6.265625 0.789062 1.078125 5.976562 1.078125 12.351562 C 1.078125 18.722656 6.265625 23.910156 12.640625 23.910156 C 16.554688 23.910156 20.019531 21.949219 22.113281 18.964844 L 12.640625 18.964844 L 12.640625 9.785156 L 33.375 9.785156 L 33.375 30.078125 L 42.203125 21.25 C 47.035156 16.417969 47.035156 8.585938 42.203125 3.753906 Z M 42.203125 3.753906 " fill-opacity="1" fill-rule="nonzero"/></g></g></g></g></g><g mask="url(#2802184218)"><g transform="matrix(1, 0, 0, 1, 25, 25)"><g clip-path="url(#e90723cfd9)"><g clip-path="url(#bfa5f77db0)"><path fill="#ffffff" d="M 1.082031 12.347656 C 1.082031 14.144531 1.492188 15.84375 2.222656 17.359375 C 2.203125 17.078125 2.1875 16.792969 2.1875 16.507812 C 2.1875 10.132812 7.375 4.945312 13.75 4.945312 L 43.253906 4.945312 C 42.933594 4.53125 42.585938 4.132812 42.207031 3.753906 L 39.242188 0.789062 L 12.640625 0.789062 C 6.265625 0.789062 1.082031 5.976562 1.082031 12.347656 Z M 1.082031 12.347656 " fill-opacity="1" fill-rule="nonzero"/></g></g></g></g></svg>