<svg xmlns="http://www.w3.org/2000/svg" xmlns:xlink="http://www.w3.org/1999/xlink" width="100" zoomAndPan="magnify" viewBox="0 0 75 74.999997" height="100" preserveAspectRatio="xMidYMid meet" version="1.0"><defs><g/><clipPath id="057cb5c126"><path d="M 53.976562 44.640625 L 67.5 44.640625 L 67.5 58.164062 L 53.976562 58.164062 Z M 53.976562 44.640625 " clip-rule="nonzero"/></clipPath><clipPath id="6e7f7a0e47"><path d="M 60.738281 44.640625 C 57.003906 44.640625 53.976562 47.667969 53.976562 51.402344 C 53.976562 55.136719 57.003906 58.164062 60.738281 58.164062 C 64.472656 58.164062 67.5 55.136719 67.5 51.402344 C 67.5 47.667969 64.472656 44.640625 60.738281 44.640625 Z M 60.738281 44.640625 " clip-rule="nonzero"/></clipPath></defs><g clip-path="url(#057cb5c126)"><g clip-path="url(#6e7f7a0e47)"><path fill="#262626" d="M 53.976562 44.640625 L 67.5 44.640625 L 67.5 58.164062 L 53.976562 58.164062 Z M 53.976562 44.640625 " fill-opacity="1" fill-rule="nonzero"/></g></g><g fill="#1e1e1e" fill-opacity="1"><g transform="translate(5.367878, 58.268071)"><g><path d="M 38.96875 -23.484375 L 46 -23.484375 L 46 -5.875 C 43.539062 -4.007812 40.640625 -2.503906 37.296875 -1.359375 C 33.953125 -0.222656 30.664062 0.34375 27.4375 0.34375 C 20.382812 0.34375 14.4375 -1.988281 9.59375 -6.65625 C 4.75 -11.320312 2.328125 -17.066406 2.328125 -23.890625 C 2.328125 -30.710938 4.78125 -36.429688 9.6875 -41.046875 C 14.601562 -45.671875 20.679688 -47.984375 27.921875 -47.984375 C 31.285156 -47.984375 34.59375 -47.378906 37.84375 -46.171875 C 41.09375 -44.960938 43.90625 -43.335938 46.28125 -41.296875 L 41.703125 -35.359375 C 37.785156 -38.992188 33.191406 -40.8125 27.921875 -40.8125 C 23.046875 -40.8125 18.925781 -39.171875 15.5625 -35.890625 C 12.195312 -32.617188 10.515625 -28.617188 10.515625 -23.890625 C 10.515625 -19.109375 12.207031 -15.078125 15.59375 -11.796875 C 18.988281 -8.523438 23.117188 -6.890625 27.984375 -6.890625 C 31.671875 -6.890625 35.332031 -7.984375 38.96875 -10.171875 Z M 38.96875 -23.484375 "/></g></g></g></svg>