<svg xmlns="http://www.w3.org/2000/svg" xmlns:xlink="http://www.w3.org/1999/xlink" width="500" zoomAndPan="magnify" viewBox="0 0 375 374.999991" height="500" preserveAspectRatio="xMidYMid meet" version="1.0"><defs><g/></defs><g fill="#ffffff" fill-opacity="1"><g transform="translate(68.110277, 271.474438)"><g><path d="M 194.875 -117.40625 L 230.03125 -117.40625 L 230.03125 -29.34375 C 217.738281 -20.019531 203.226562 -12.515625 186.5 -6.828125 C 169.78125 -1.140625 153.34375 1.703125 137.1875 1.703125 C 101.925781 1.703125 72.179688 -9.953125 47.953125 -33.265625 C 23.722656 -56.585938 11.609375 -85.3125 11.609375 -119.4375 C 11.609375 -153.570312 23.890625 -182.1875 48.453125 -205.28125 C 73.023438 -228.375 103.398438 -239.921875 139.578125 -239.921875 C 156.421875 -239.921875 172.972656 -236.90625 189.234375 -230.875 C 205.503906 -224.84375 219.554688 -216.707031 231.390625 -206.46875 L 208.515625 -176.78125 C 188.953125 -194.988281 165.972656 -204.09375 139.578125 -204.09375 C 115.234375 -204.09375 94.644531 -195.898438 77.8125 -179.515625 C 60.976562 -163.128906 52.5625 -143.109375 52.5625 -119.453125 C 52.5625 -95.554688 61.035156 -75.414062 77.984375 -59.03125 C 94.929688 -42.65625 115.578125 -34.46875 139.921875 -34.46875 C 158.347656 -34.46875 176.664062 -39.925781 194.875 -50.84375 Z M 194.875 -117.40625 "/></g></g></g><path stroke-linecap="butt" transform="matrix(0.75, 0, 0, 0.75, 78.007895, 309.058866)" fill="none" stroke-linejoin="miter" d="M -0.000110503 12.499638 L 291.979075 12.499638 " stroke="#ffffff" stroke-width="25" stroke-opacity="1" stroke-miterlimit="4"/></svg>