<svg xmlns="http://www.w3.org/2000/svg" xmlns:xlink="http://www.w3.org/1999/xlink" width="100" zoomAndPan="magnify" viewBox="0 0 75 74.999997" height="100" preserveAspectRatio="xMidYMid meet" version="1.0"><defs><filter x="0%" y="0%" width="100%" height="100%" id="e56b4ce508"><feColorMatrix values="0 0 0 0 1 0 0 0 0 1 0 0 0 0 1 0 0 0 1 0" color-interpolation-filters="sRGB"/></filter><mask id="4eb2b1764d"><g filter="url(#e56b4ce508)"><rect x="-7.5" width="90" fill="#000000" y="-7.5" height="89.999996" fill-opacity="0.79"/></g></mask><clipPath id="c68b17e583"><path d="M 1 0.160156 L 31.398438 0.160156 L 31.398438 23.441406 L 1 23.441406 Z M 1 0.160156 " clip-rule="nonzero"/></clipPath><clipPath id="647e3c8f19"><rect x="0" width="32" y="0" height="24"/></clipPath><mask id="6db14ef9a8"><g filter="url(#e56b4ce508)"><rect x="-7.5" width="90" fill="#000000" y="-7.5" height="89.999996" fill-opacity="0.79"/></g></mask><clipPath id="515ef7f7b9"><path d="M 0.078125 0.558594 L 51.199219 0.558594 L 51.199219 57.921875 L 0.078125 57.921875 Z M 0.078125 0.558594 " clip-rule="nonzero"/></clipPath><clipPath id="4451b10242"><rect x="0" width="52" y="0" height="58"/></clipPath><mask id="57e1398ec8"><g filter="url(#e56b4ce508)"><rect x="-7.5" width="90" fill="#000000" y="-7.5" height="89.999996" fill-opacity="0.79"/></g></mask><clipPath id="0e25b8531c"><path d="M 0.28125 0.160156 L 41.800781 0.160156 L 41.800781 15 L 0.28125 15 Z M 0.28125 0.160156 " clip-rule="nonzero"/></clipPath><clipPath id="500c3fa982"><rect x="0" width="42" y="0" height="16"/></clipPath><mask id="8149f2bee6"><g filter="url(#e56b4ce508)"><rect x="-7.5" width="90" fill="#000000" y="-7.5" height="89.999996" fill-opacity="0.79"/></g></mask><clipPath id="c8a466d615"><path d="M 1 0.558594 L 33.199219 0.558594 L 33.199219 17.839844 L 1 17.839844 Z M 1 0.558594 " clip-rule="nonzero"/></clipPath><clipPath id="98004c1246"><rect x="0" width="34" y="0" height="18"/></clipPath><mask id="afdfac0ff2"><g filter="url(#e56b4ce508)"><rect x="-7.5" width="90" fill="#000000" y="-7.5" height="89.999996" fill-opacity="0.79"/></g></mask><clipPath id="9f111b2a92"><path d="M 0.71875 0.558594 L 7.199219 0.558594 L 7.199219 1.28125 L 0.71875 1.28125 Z M 0.71875 0.558594 " clip-rule="nonzero"/></clipPath><clipPath id="4007c58be9"><rect x="0" width="8" y="0" height="2"/></clipPath><mask id="3e4777b868"><g filter="url(#e56b4ce508)"><rect x="-7.5" width="90" fill="#000000" y="-7.5" height="89.999996" fill-opacity="0.79"/></g></mask><clipPath id="bb657bf849"><path d="M 0.398438 0.441406 L 28.960938 0.441406 L 28.960938 22.519531 L 0.398438 22.519531 Z M 0.398438 0.441406 " clip-rule="nonzero"/></clipPath><clipPath id="7dce7dbd7b"><rect x="0" width="29" y="0" height="23"/></clipPath><clipPath id="d29591499b"><path d="M 25 26 L 71.960938 26 L 71.960938 56 L 25 56 Z M 25 26 " clip-rule="nonzero"/></clipPath><mask id="301b02df08"><g filter="url(#e56b4ce508)"><rect x="-7.5" width="90" fill="#000000" y="-7.5" height="89.999996" fill-opacity="0.79"/></g></mask><clipPath id="051a153dc9"><path d="M 1 0.160156 L 46 0.160156 L 46 29.679688 L 1 29.679688 Z M 1 0.160156 " clip-rule="nonzero"/></clipPath><clipPath id="9b2ef35796"><rect x="0" width="47" y="0" height="30"/></clipPath><mask id="b2252fdb07"><g filter="url(#e56b4ce508)"><rect x="-7.5" width="90" fill="#000000" y="-7.5" height="89.999996" fill-opacity="0.24"/></g></mask><clipPath id="acf2522742"><path d="M 1 0.160156 L 43.398438 0.160156 L 43.398438 17 L 1 17 Z M 1 0.160156 " clip-rule="nonzero"/></clipPath><clipPath id="801a6417de"><rect x="0" width="44" y="0" height="18"/></clipPath></defs><rect x="-7.5" width="90" fill="#ffffff" y="-7.5" height="89.999996" fill-opacity="1"/><rect x="-7.5" width="90" fill="#ffffff" y="-7.5" height="89.999996" fill-opacity="1"/><g mask="url(#4eb2b1764d)"><g transform="matrix(1, 0, 0, 1, 25, 26)"><g clip-path="url(#647e3c8f19)"><g clip-path="url(#c68b17e583)"><path fill="#000000" d="M 1.082031 11.878906 C 1.082031 18.253906 6.265625 23.4375 12.640625 23.4375 C 16.554688 23.4375 20.019531 21.480469 22.113281 18.492188 L 12.640625 18.492188 L 12.640625 9.316406 L 30.027344 9.316406 C 30.789062 6.445312 31.203125 3.429688 31.214844 0.320312 L 12.640625 0.320312 C 6.265625 0.320312 1.082031 5.503906 1.082031 11.878906 Z M 1.082031 11.878906 " fill-opacity="1" fill-rule="nonzero"/></g></g></g></g><g mask="url(#6db14ef9a8)"><g transform="matrix(1, 0, 0, 1, 4, 4)"><g clip-path="url(#4451b10242)"><g clip-path="url(#515ef7f7b9)"><path fill="#000000" d="M 12.90625 33.878906 C 12.90625 22.445312 22.207031 13.144531 33.640625 13.144531 L 51.0625 13.144531 L 42.25 4.328125 C 37.417969 -0.503906 29.585938 -0.503906 24.753906 4.328125 L 3.796875 25.28125 C -1.035156 30.113281 -1.035156 37.949219 3.796875 42.78125 L 18.734375 57.714844 C 23.28125 57.445312 27.59375 56.324219 31.523438 54.507812 C 21.082031 53.445312 12.90625 44.597656 12.90625 33.878906 Z M 12.90625 33.878906 " fill-opacity="1" fill-rule="nonzero"/></g></g></g></g><g mask="url(#57e1398ec8)"><g transform="matrix(1, 0, 0, 1, 29, 26)"><g clip-path="url(#500c3fa982)"><g clip-path="url(#0e25b8531c)"><path fill="#000000" d="M 0.382812 3.800781 C 2.664062 6.6875 5.460938 9.144531 8.640625 11.03125 L 8.640625 9.316406 L 29.375 9.316406 L 29.375 14.738281 C 33.867188 13.917969 38.011719 12.09375 41.566406 9.511719 C 41.09375 7.230469 39.976562 5.054688 38.203125 3.285156 L 35.242188 0.320312 L 8.640625 0.320312 C 5.410156 0.320312 2.484375 1.652344 0.382812 3.800781 Z M 0.382812 3.800781 " fill-opacity="1" fill-rule="nonzero"/></g></g></g></g><g mask="url(#8149f2bee6)"><g transform="matrix(1, 0, 0, 1, 22, 4)"><g clip-path="url(#98004c1246)"><g clip-path="url(#c8a466d615)"><path fill="#000000" d="M 15.640625 13.144531 L 33.066406 13.144531 L 24.25 4.328125 C 19.417969 -0.503906 11.585938 -0.503906 6.753906 4.328125 L 1.0625 10.015625 C 1.308594 12.664062 1.902344 15.214844 2.789062 17.617188 C 6.324219 14.816406 10.789062 13.144531 15.640625 13.144531 Z M 15.640625 13.144531 " fill-opacity="1" fill-rule="nonzero"/></g></g></g></g><g mask="url(#afdfac0ff2)"><g transform="matrix(1, 0, 0, 1, 48, 16)"><g clip-path="url(#4007c58be9)"><g clip-path="url(#9f111b2a92)"><path fill="#000000" d="M 7.066406 1.144531 L 6.601562 0.679688 C 6.566406 0.679688 6.535156 0.675781 6.503906 0.675781 C 4.585938 0.675781 2.710938 0.839844 0.878906 1.144531 Z M 7.066406 1.144531 " fill-opacity="1" fill-rule="nonzero"/></g></g></g></g><g mask="url(#3e4777b868)"><g transform="matrix(1, 0, 0, 1, 20, 49)"><g clip-path="url(#7dce7dbd7b)"><g clip-path="url(#bb657bf849)"><path fill="#000000" d="M 17.640625 9.613281 C 10.578125 9.613281 4.328125 6.066406 0.582031 0.65625 C 0.574219 0.972656 0.570312 1.289062 0.570312 1.609375 C 0.570312 5.328125 1.171875 8.910156 2.277344 12.257812 L 8.753906 18.734375 C 13.585938 23.566406 21.417969 23.566406 26.25 18.734375 L 28.703125 16.28125 L 28.703125 6.410156 C 25.5 8.4375 21.707031 9.613281 17.640625 9.613281 Z M 17.640625 9.613281 " fill-opacity="1" fill-rule="nonzero"/></g></g></g></g><g clip-path="url(#d29591499b)"><g mask="url(#301b02df08)"><g transform="matrix(1, 0, 0, 1, 25, 26)"><g clip-path="url(#9b2ef35796)"><g clip-path="url(#051a153dc9)"><path fill="#000000" d="M 42.203125 3.28125 L 39.242188 0.320312 L 12.640625 0.320312 C 6.265625 0.320312 1.078125 5.503906 1.078125 11.878906 C 1.078125 18.253906 6.265625 23.441406 12.640625 23.441406 C 16.554688 23.441406 20.019531 21.480469 22.113281 18.492188 L 12.640625 18.492188 L 12.640625 9.316406 L 33.375 9.316406 L 33.375 29.609375 L 42.203125 20.78125 C 47.035156 15.949219 47.035156 8.113281 42.203125 3.28125 Z M 42.203125 3.28125 " fill-opacity="1" fill-rule="nonzero"/></g></g></g></g></g><g mask="url(#b2252fdb07)"><g transform="matrix(1, 0, 0, 1, 25, 26)"><g clip-path="url(#801a6417de)"><g clip-path="url(#acf2522742)"><path fill="#414042" d="M 1.082031 11.878906 C 1.082031 13.671875 1.492188 15.371094 2.222656 16.886719 C 2.203125 16.609375 2.1875 16.324219 2.1875 16.035156 C 2.1875 9.664062 7.375 4.476562 13.75 4.476562 L 43.253906 4.476562 C 42.933594 4.0625 42.585938 3.660156 42.207031 3.28125 L 39.242188 0.320312 L 12.640625 0.320312 C 6.265625 0.320312 1.082031 5.503906 1.082031 11.878906 Z M 1.082031 11.878906 " fill-opacity="1" fill-rule="nonzero"/></g></g></g></g></svg>