<svg xmlns="http://www.w3.org/2000/svg" xmlns:xlink="http://www.w3.org/1999/xlink" width="50" zoomAndPan="magnify" viewBox="0 0 37.5 37.499999" height="50" preserveAspectRatio="xMidYMid meet" version="1.0"><defs><g/></defs><g fill="#ffffff" fill-opacity="1"><g transform="translate(6.721408, 26.790244)"><g><path d="M 19.234375 -11.578125 L 22.6875 -11.578125 L 22.6875 -2.890625 C 21.476562 -1.972656 20.046875 -1.234375 18.390625 -0.671875 C 16.742188 -0.109375 15.125 0.171875 13.53125 0.171875 C 10.050781 0.171875 7.113281 -0.976562 4.71875 -3.28125 C 2.332031 -5.582031 1.140625 -8.414062 1.140625 -11.78125 C 1.140625 -15.144531 2.351562 -17.96875 4.78125 -20.25 C 7.207031 -22.53125 10.203125 -23.671875 13.765625 -23.671875 C 15.429688 -23.671875 17.066406 -23.375 18.671875 -22.78125 C 20.273438 -22.1875 21.660156 -21.382812 22.828125 -20.375 L 20.578125 -17.4375 C 18.640625 -19.238281 16.367188 -20.140625 13.765625 -20.140625 C 11.367188 -20.140625 9.335938 -19.328125 7.671875 -17.703125 C 6.015625 -16.085938 5.1875 -14.113281 5.1875 -11.78125 C 5.1875 -9.425781 6.019531 -7.441406 7.6875 -5.828125 C 9.363281 -4.210938 11.40625 -3.40625 13.8125 -3.40625 C 15.625 -3.40625 17.429688 -3.941406 19.234375 -5.015625 Z M 19.234375 -11.578125 "/></g></g></g><path stroke-linecap="butt" transform="matrix(0.740132, 0, 0, 0.740132, 7.698147, 30.314197)" fill="none" stroke-linejoin="miter" d="M 0.00144788 1.501874 L 29.198117 1.501874 " stroke="#ffffff" stroke-width="3" stroke-opacity="1" stroke-miterlimit="4"/></svg>