<svg xmlns="http://www.w3.org/2000/svg" xmlns:xlink="http://www.w3.org/1999/xlink" width="40" zoomAndPan="magnify" viewBox="0 0 30 30.000001" height="40" preserveAspectRatio="xMidYMid meet" version="1.0"><defs><clipPath id="c592976340"><path d="M 10 5.804688 L 20 5.804688 L 20 23.226562 L 10 23.226562 Z M 10 5.804688 " clip-rule="nonzero"/></clipPath></defs><g clip-path="url(#c592976340)"><path fill="#000000" d="M 12.289062 15.984375 L 12.289062 23.199219 L 16.238281 23.199219 L 16.238281 15.984375 L 19.179688 15.984375 L 19.792969 12.667969 L 16.238281 12.667969 L 16.238281 11.496094 C 16.238281 9.742188 16.925781 9.070312 18.710938 9.070312 C 19.265625 9.070312 19.710938 9.082031 19.96875 9.109375 L 19.96875 6.101562 C 19.480469 5.96875 18.292969 5.832031 17.605469 5.832031 C 13.96875 5.832031 12.289062 7.546875 12.289062 11.238281 L 12.289062 12.667969 L 10.042969 12.667969 L 10.042969 15.984375 Z M 12.289062 15.984375 " fill-opacity="1" fill-rule="nonzero"/></g></svg>