<svg xmlns="http://www.w3.org/2000/svg" xmlns:xlink="http://www.w3.org/1999/xlink" width="40" zoomAndPan="magnify" viewBox="0 0 30 30.000001" height="40" preserveAspectRatio="xMidYMid meet" version="1.0"><defs><clipPath id="04de7a7c1d"><path d="M 6.113281 5 L 23.53125 5 L 23.53125 24 L 6.113281 24 Z M 6.113281 5 " clip-rule="nonzero"/></clipPath></defs><g clip-path="url(#04de7a7c1d)"><path fill="#000000" d="M 14.828125 9.953125 C 12.355469 9.953125 10.359375 11.988281 10.359375 14.511719 C 10.359375 17.035156 12.355469 19.070312 14.828125 19.070312 C 17.300781 19.070312 19.292969 17.035156 19.292969 14.511719 C 19.292969 11.988281 17.300781 9.953125 14.828125 9.953125 Z M 14.828125 17.476562 C 13.230469 17.476562 11.921875 16.144531 11.921875 14.511719 C 11.921875 12.878906 13.226562 11.550781 14.828125 11.550781 C 16.429688 11.550781 17.730469 12.878906 17.730469 14.511719 C 17.730469 16.144531 16.425781 17.476562 14.828125 17.476562 Z M 20.519531 9.769531 C 20.519531 10.359375 20.054688 10.832031 19.476562 10.832031 C 18.898438 10.832031 18.433594 10.355469 18.433594 9.769531 C 18.433594 9.179688 18.902344 8.703125 19.476562 8.703125 C 20.054688 8.703125 20.519531 9.179688 20.519531 9.769531 Z M 23.476562 10.847656 C 23.414062 9.421875 23.09375 8.160156 22.070312 7.121094 C 21.050781 6.082031 19.816406 5.757812 18.417969 5.6875 C 16.980469 5.601562 12.667969 5.601562 11.230469 5.6875 C 9.839844 5.753906 8.601562 6.078125 7.578125 7.117188 C 6.558594 8.15625 6.242188 9.417969 6.171875 10.84375 C 6.089844 12.3125 6.089844 16.710938 6.171875 18.175781 C 6.238281 19.601562 6.558594 20.863281 7.578125 21.902344 C 8.601562 22.941406 9.835938 23.265625 11.230469 23.339844 C 12.667969 23.421875 16.980469 23.421875 18.417969 23.339844 C 19.816406 23.269531 21.050781 22.945312 22.070312 21.902344 C 23.089844 20.863281 23.410156 19.601562 23.476562 18.175781 C 23.558594 16.710938 23.558594 12.316406 23.476562 10.847656 Z M 21.621094 19.753906 C 21.316406 20.53125 20.730469 21.128906 19.964844 21.441406 C 18.816406 21.90625 16.09375 21.800781 14.828125 21.800781 C 13.558594 21.800781 10.832031 21.902344 9.691406 21.441406 C 8.929688 21.132812 8.339844 20.535156 8.035156 19.753906 C 7.578125 18.582031 7.683594 15.804688 7.683594 14.511719 C 7.683594 13.21875 7.582031 10.4375 8.035156 9.273438 C 8.335938 8.496094 8.925781 7.894531 9.691406 7.582031 C 10.835938 7.117188 13.558594 7.226562 14.828125 7.226562 C 16.09375 7.226562 18.820312 7.121094 19.964844 7.582031 C 20.726562 7.890625 21.3125 8.492188 21.621094 9.273438 C 22.074219 10.441406 21.96875 13.21875 21.96875 14.511719 C 21.96875 15.804688 22.074219 18.585938 21.621094 19.753906 Z M 21.621094 19.753906 " fill-opacity="1" fill-rule="nonzero"/></g></svg>