<svg xmlns="http://www.w3.org/2000/svg" xmlns:xlink="http://www.w3.org/1999/xlink" width="40" zoomAndPan="magnify" viewBox="0 0 30 30.000001" height="40" preserveAspectRatio="xMidYMid meet" version="1.0"><defs><clipPath id="2a6c9bdadc"><path d="M 7.378906 5.804688 L 22.621094 5.804688 L 22.621094 22 L 7.378906 22 Z M 7.378906 5.804688 " clip-rule="nonzero"/></clipPath></defs><g clip-path="url(#2a6c9bdadc)"><path fill="#000000" d="M 10.792969 21.046875 L 7.628906 21.046875 L 7.628906 10.871094 L 10.792969 10.871094 Z M 9.210938 9.484375 C 8.199219 9.484375 7.378906 8.648438 7.378906 7.636719 C 7.378906 7.394531 7.425781 7.160156 7.519531 6.9375 C 7.613281 6.710938 7.742188 6.515625 7.914062 6.34375 C 8.085938 6.171875 8.285156 6.039062 8.507812 5.945312 C 8.734375 5.851562 8.964844 5.808594 9.210938 5.808594 C 9.453125 5.808594 9.683594 5.851562 9.910156 5.945312 C 10.132812 6.039062 10.332031 6.171875 10.503906 6.34375 C 10.675781 6.515625 10.808594 6.710938 10.898438 6.9375 C 10.992188 7.160156 11.039062 7.394531 11.039062 7.636719 C 11.039062 8.648438 10.21875 9.484375 9.210938 9.484375 Z M 22.617188 21.046875 L 19.464844 21.046875 L 19.464844 16.09375 C 19.464844 14.914062 19.441406 13.398438 17.820312 13.398438 C 16.175781 13.398438 15.925781 14.683594 15.925781 16.007812 L 15.925781 21.046875 L 12.769531 21.046875 L 12.769531 10.871094 L 15.800781 10.871094 L 15.800781 12.261719 L 15.84375 12.261719 C 16.265625 11.460938 17.296875 10.617188 18.835938 10.617188 C 22.03125 10.617188 22.621094 12.722656 22.621094 15.457031 L 22.621094 21.046875 Z M 22.617188 21.046875 " fill-opacity="1" fill-rule="nonzero"/></g></svg>