<svg xmlns="http://www.w3.org/2000/svg" xmlns:xlink="http://www.w3.org/1999/xlink" width="40" zoomAndPan="magnify" viewBox="0 0 30 30.000001" height="40" preserveAspectRatio="xMidYMid meet" version="1.0"><defs><clipPath id="4cebb99be6"><path d="M 6.316406 8 L 23.734375 8 L 23.734375 21 L 6.316406 21 Z M 6.316406 8 " clip-rule="nonzero"/></clipPath></defs><g clip-path="url(#4cebb99be6)"><path fill="#000000" d="M 22.9375 10.492188 C 22.75 9.785156 22.1875 9.230469 21.476562 9.042969 C 20.191406 8.703125 15.023438 8.703125 15.023438 8.703125 C 15.023438 8.703125 9.859375 8.703125 8.570312 9.042969 C 7.859375 9.230469 7.300781 9.785156 7.109375 10.492188 C 6.765625 11.769531 6.765625 14.429688 6.765625 14.429688 C 6.765625 14.429688 6.765625 17.089844 7.109375 18.367188 C 7.300781 19.074219 7.859375 19.601562 8.570312 19.789062 C 9.859375 20.132812 15.023438 20.132812 15.023438 20.132812 C 15.023438 20.132812 20.191406 20.132812 21.476562 19.789062 C 22.1875 19.601562 22.75 19.070312 22.9375 18.367188 C 23.285156 17.089844 23.285156 14.429688 23.285156 14.429688 C 23.285156 14.429688 23.285156 11.769531 22.9375 10.492188 Z M 13.335938 16.847656 L 13.335938 12.011719 L 17.652344 14.429688 Z M 13.335938 16.847656 " fill-opacity="1" fill-rule="nonzero"/></g></svg>